<svg width="16" height="17" viewBox="0 0 16 17" fill="none" xmlns="http://www.w3.org/2000/svg">
<path d="M13.7778 10.5404V14.3185H2.22118V10.5404H0V15.4291C0 16.042 0.496538 16.5391 1.11224 16.5391H14.8868C15.5019 16.5391 15.999 16.0426 15.999 15.4291V10.5404H13.7778Z" fill="#C5C7CD"/>
<path d="M7.79621 10.1658L4.61616 6.32313C4.61616 6.32313 4.13231 5.86632 4.65699 5.86632C5.18166 5.86632 6.44894 5.86632 6.44894 5.86632C6.44894 5.86632 6.44894 5.55902 6.44894 5.0851C6.44894 3.73396 6.44894 1.275 6.44894 0.272544C6.44894 0.272544 6.37776 0 6.78824 0C7.20202 0 9.01438 0 9.31065 0C9.60636 0 9.59974 0.229511 9.59974 0.229511C9.59974 1.20162 9.59974 3.74555 9.59974 5.05255C9.59974 5.47626 9.59974 5.75101 9.59974 5.75101C9.59974 5.75101 10.616 5.75101 11.2538 5.75101C11.8904 5.75101 11.411 6.22934 11.411 6.22934C11.411 6.22934 8.70542 9.82097 8.32805 10.1978C8.05661 10.4709 7.79621 10.1658 7.79621 10.1658Z" fill="#C5C7CD"/>
</svg>
